<?xml version="1.0" encoding="UTF-8" standalone="no"?>
<svg
   xmlns:dc="http://purl.org/dc/elements/1.1/"
   xmlns:cc="http://creativecommons.org/ns#"
   xmlns:rdf="http://www.w3.org/1999/02/22-rdf-syntax-ns#"
   xmlns:svg="http://www.w3.org/2000/svg"
   xmlns="http://www.w3.org/2000/svg"
   xmlns:sodipodi="http://sodipodi.sourceforge.net/DTD/sodipodi-0.dtd"
   xmlns:inkscape="http://www.inkscape.org/namespaces/inkscape"
   sodipodi:docname="logo-eye.svg"
   inkscape:version="1.0 (4035a4fb49, 2020-05-01)"
   id="svg1222"
   version="1.1"
   viewBox="0 0 210 297"
   height="297mm"
   width="210mm">
  <defs
     id="defs1216">
    <clipPath
       clipPathUnits="userSpaceOnUse"
       id="clipPath17670-8">
      <path
         inkscape:connector-curvature="0"
         d="m 0,288.75 201.25,0 L 201.25,0 0,0 0,288.75 z"
         id="path17672-4" />
    </clipPath>
    <clipPath
       clipPathUnits="userSpaceOnUse"
       id="clipPath18098-9">
      <path
         inkscape:connector-curvature="0"
         d="m 0,288.75 201.25,0 L 201.25,0 0,0 0,288.75 z"
         id="path18100-2" />
    </clipPath>
    <clipPath
       clipPathUnits="userSpaceOnUse"
       id="clipPath17356-3">
      <path
         inkscape:connector-curvature="0"
         d="m 0,288.75 201.25,0 L 201.25,0 0,0 0,288.75 z"
         id="path17358-6" />
    </clipPath>
    <clipPath
       clipPathUnits="userSpaceOnUse"
       id="clipPath18256-8">
      <path
         inkscape:connector-curvature="0"
         d="m 0,288.75 201.25,0 L 201.25,0 0,0 0,288.75 z"
         id="path18258-5" />
    </clipPath>
    <clipPath
       clipPathUnits="userSpaceOnUse"
       id="clipPath17038-7">
      <path
         inkscape:connector-curvature="0"
         d="m 0,288.75 201.25,0 L 201.25,0 0,0 0,288.75 z"
         id="path17040-4" />
    </clipPath>
    <clipPath
       clipPathUnits="userSpaceOnUse"
       id="clipPath18818-4">
      <path
         inkscape:connector-curvature="0"
         d="m 0,288.75 201.25,0 L 201.25,0 0,0 0,288.75 z"
         id="path18820-5" />
    </clipPath>
    <clipPath
       clipPathUnits="userSpaceOnUse"
       id="clipPath18850-8">
      <path
         inkscape:connector-curvature="0"
         d="m 0,288.75 201.25,0 L 201.25,0 0,0 0,288.75 z"
         id="path18852-1" />
    </clipPath>
    <clipPath
       clipPathUnits="userSpaceOnUse"
       id="clipPath18840-2">
      <path
         inkscape:connector-curvature="0"
         d="m 0,288.75 201.25,0 L 201.25,0 0,0 0,288.75 z"
         id="path18842-2" />
    </clipPath>
    <clipPath
       clipPathUnits="userSpaceOnUse"
       id="clipPath18828-1">
      <path
         inkscape:connector-curvature="0"
         d="m 0,288.75 201.25,0 L 201.25,0 0,0 0,288.75 z"
         id="path18830-8" />
    </clipPath>
    <clipPath
       clipPathUnits="userSpaceOnUse"
       id="clipPath17450-4">
      <path
         inkscape:connector-curvature="0"
         d="m 0,288.75 201.25,0 L 201.25,0 0,0 0,288.75 z"
         id="path17452-2" />
    </clipPath>
    <clipPath
       clipPathUnits="userSpaceOnUse"
       id="clipPath18356-2">
      <path
         inkscape:connector-curvature="0"
         d="m 0,288.75 201.25,0 L 201.25,0 0,0 0,288.75 z"
         id="path18358-6" />
    </clipPath>
    <clipPath
       clipPathUnits="userSpaceOnUse"
       id="clipPath18344-1">
      <path
         inkscape:connector-curvature="0"
         d="m 0,288.75 201.25,0 L 201.25,0 0,0 0,288.75 z"
         id="path18346-5" />
    </clipPath>
    <clipPath
       clipPathUnits="userSpaceOnUse"
       id="clipPath17196-7">
      <path
         inkscape:connector-curvature="0"
         d="m 0,288.75 201.25,0 L 201.25,0 0,0 0,288.75 z"
         id="path17198-7" />
    </clipPath>
    <clipPath
       clipPathUnits="userSpaceOnUse"
       id="clipPath18206-3">
      <path
         inkscape:connector-curvature="0"
         d="m 0,288.75 201.25,0 L 201.25,0 0,0 0,288.75 z"
         id="path18208-2" />
    </clipPath>
    <clipPath
       clipPathUnits="userSpaceOnUse"
       id="clipPath18876-0">
      <path
         inkscape:connector-curvature="0"
         d="m 0,288.75 201.25,0 L 201.25,0 0,0 0,288.75 z"
         id="path18878-2" />
    </clipPath>
    <clipPath
       clipPathUnits="userSpaceOnUse"
       id="clipPath19100-4">
      <path
         inkscape:connector-curvature="0"
         d="m 0,288.75 201.25,0 L 201.25,0 0,0 0,288.75 z"
         id="path19102-3" />
    </clipPath>
    <clipPath
       clipPathUnits="userSpaceOnUse"
       id="clipPath19144-3">
      <path
         inkscape:connector-curvature="0"
         d="m 0,288.75 201.25,0 L 201.25,0 0,0 0,288.75 z"
         id="path19146-9" />
    </clipPath>
    <clipPath
       clipPathUnits="userSpaceOnUse"
       id="clipPath16862-5">
      <path
         inkscape:connector-curvature="0"
         d="m 0,288.75 201.25,0 L 201.25,0 0,0 0,288.75 z"
         id="path16864-3" />
    </clipPath>
    <clipPath
       clipPathUnits="userSpaceOnUse"
       id="clipPath18228-0">
      <path
         inkscape:connector-curvature="0"
         d="m 0,288.75 201.25,0 L 201.25,0 0,0 0,288.75 z"
         id="path18230-3" />
    </clipPath>
    <clipPath
       clipPathUnits="userSpaceOnUse"
       id="clipPath17296-6">
      <path
         inkscape:connector-curvature="0"
         d="m 0,288.75 201.25,0 L 201.25,0 0,0 0,288.75 z"
         id="path17298-6" />
    </clipPath>
    <clipPath
       clipPathUnits="userSpaceOnUse"
       id="clipPath18086-6">
      <path
         inkscape:connector-curvature="0"
         d="m 0,288.75 201.25,0 L 201.25,0 0,0 0,288.75 z"
         id="path18088-1" />
    </clipPath>
    <clipPath
       clipPathUnits="userSpaceOnUse"
       id="clipPath17686-1">
      <path
         inkscape:connector-curvature="0"
         d="m 0,288.75 201.25,0 L 201.25,0 0,0 0,288.75 z"
         id="path17688-5" />
    </clipPath>
    <clipPath
       clipPathUnits="userSpaceOnUse"
       id="clipPath17698-8">
      <path
         inkscape:connector-curvature="0"
         d="m 0,288.75 201.25,0 L 201.25,0 0,0 0,288.75 z"
         id="path17700-0" />
    </clipPath>
    <clipPath
       clipPathUnits="userSpaceOnUse"
       id="clipPath17916-1">
      <path
         inkscape:connector-curvature="0"
         d="m 0,288.75 201.25,0 L 201.25,0 0,0 0,288.75 z"
         id="path17918-3" />
    </clipPath>
    <clipPath
       clipPathUnits="userSpaceOnUse"
       id="clipPath17244-5">
      <path
         inkscape:connector-curvature="0"
         d="m 0,288.75 201.25,0 L 201.25,0 0,0 0,288.75 z"
         id="path17246-6" />
    </clipPath>
    <clipPath
       clipPathUnits="userSpaceOnUse"
       id="clipPath17956-8-7">
      <path
         inkscape:connector-curvature="0"
         d="m 0,288.75 201.25,0 L 201.25,0 0,0 0,288.75 z"
         id="path17958-2-9" />
    </clipPath>
    <clipPath
       clipPathUnits="userSpaceOnUse"
       id="clipPath17956-8">
      <path
         inkscape:connector-curvature="0"
         d="m 0,288.75 201.25,0 L 201.25,0 0,0 0,288.75 z"
         id="path17958-2" />
    </clipPath>
    <clipPath
       clipPathUnits="userSpaceOnUse"
       id="clipPath18046-2">
      <path
         inkscape:connector-curvature="0"
         d="m 0,288.75 201.25,0 L 201.25,0 0,0 0,288.75 z"
         id="path18048-4" />
    </clipPath>
    <clipPath
       clipPathUnits="userSpaceOnUse"
       id="clipPath18034-6">
      <path
         inkscape:connector-curvature="0"
         d="m 0,288.75 201.25,0 L 201.25,0 0,0 0,288.75 z"
         id="path18036-4" />
    </clipPath>
    <clipPath
       clipPathUnits="userSpaceOnUse"
       id="clipPath17462-9">
      <path
         inkscape:connector-curvature="0"
         d="m 0,288.75 201.25,0 L 201.25,0 0,0 0,288.75 z"
         id="path17464-1" />
    </clipPath>
    <clipPath
       clipPathUnits="userSpaceOnUse"
       id="clipPath17734-2">
      <path
         inkscape:connector-curvature="0"
         d="m 0,288.75 201.25,0 L 201.25,0 0,0 0,288.75 z"
         id="path17736-2" />
    </clipPath>
    <clipPath
       clipPathUnits="userSpaceOnUse"
       id="clipPath16892-4">
      <path
         inkscape:connector-curvature="0"
         d="m 0,288.75 201.25,0 L 201.25,0 0,0 0,288.75 z"
         id="path16894-5" />
    </clipPath>
  </defs>
  <sodipodi:namedview
     inkscape:window-maximized="1"
     inkscape:window-y="-8"
     inkscape:window-x="-8"
     inkscape:window-height="1017"
     inkscape:window-width="1920"
     inkscape:snap-global="false"
     inkscape:snap-nodes="false"
     inkscape:snap-others="false"
     showgrid="false"
     inkscape:document-rotation="0"
     inkscape:current-layer="layer3"
     inkscape:document-units="mm"
     inkscape:cy="586.80819"
     inkscape:cx="252.88848"
     inkscape:zoom="0.98994949"
     inkscape:pageshadow="2"
     inkscape:pageopacity="0.0"
     borderopacity="1.0"
     bordercolor="#666666"
     pagecolor="#ffffff"
     id="base" />
  <metadata
     id="metadata1219">
    <rdf:RDF>
      <cc:Work
         rdf:about="">
        <dc:format>image/svg+xml</dc:format>
        <dc:type
           rdf:resource="http://purl.org/dc/dcmitype/StillImage" />
        <dc:title></dc:title>
      </cc:Work>
    </rdf:RDF>
  </metadata>
  <g
     inkscape:label="3"
     id="layer3"
     inkscape:groupmode="layer">
    <path
       transform="matrix(1.0920774,0.23011605,-0.23011605,1.0920774,23.157834,-21.688795)"
       inkscape:transform-center-y="-2.6105792"
       inkscape:transform-center-x="1.583665"
       d="M 92.171727,225.26232 92.6443,180.09121 73.93295,221.20736 83.786798,177.1216 56.935808,213.44895 75.740271,172.3753 41.923157,202.32618 68.856389,166.05976 29.551122,188.32517 63.436012,158.45099 20.360421,172.05782 59.716036,149.88152 14.752731,154.23509 57.859042,140.7259 12.973135,135.63593 57.946189,131.38425 15.09941,117.07321 59.97367,122.26486 21.038627,99.358207 63.852872,113.76629 30.531215,83.265151 69.414257,106.25997 43.162302,69.497387 76.414765,100.07395 58.379848,58.656632 84.54844,95.478599 75.518774,51.21668 l 17.941029,41.458074 0.370224,-45.172063 8.929353,44.282266 9.75394,-44.107972 -0.47258,45.17111 18.71135,-41.11615 -9.85385,44.085759 26.851,-36.327355 -18.80447,41.073651 33.81712,-29.950882 -26.93324,36.266422 39.30527,-22.265406 -33.88489,29.874186 43.07559,-13.60684 -39.35561,22.1763 44.9633,-4.35357 -43.10631,13.50919 44.88591,5.08997 -44.97306,4.25168 42.84678,14.31104 -44.87426,-5.19165 38.93505,22.90665 -42.81425,-14.40808 33.32166,30.50114 -38.88304,-22.99482 26.25195,36.76258 -33.25246,-30.57656 18.03492,41.41732 -26.1686,-36.82197 9.02967,44.26192 -17.94103,-41.45807 -0.37022,45.17206 -8.92936,-44.28227 z"
       inkscape:randomized="0"
       inkscape:rounded="0"
       inkscape:flatsided="false"
       sodipodi:arg2="1.7895645"
       sodipodi:arg1="1.6848447"
       sodipodi:r2="44.686638"
       sodipodi:r1="89.373276"
       sodipodi:cy="136.46965"
       sodipodi:cx="102.34252"
       sodipodi:sides="30"
       id="path2265"
       style="fill:#000000;fill-opacity:1;stroke:none;stroke-width:0;stroke-linecap:square;stroke-linejoin:miter;stroke-miterlimit:4;stroke-dasharray:none;stroke-opacity:1;paint-order:markers fill stroke"
       sodipodi:type="star" />
    <path
       sodipodi:type="star"
       style="fill:#000000;fill-opacity:1;stroke:none;stroke-width:0;stroke-linecap:square;stroke-linejoin:miter;stroke-miterlimit:4;stroke-dasharray:none;stroke-opacity:1;paint-order:markers fill stroke"
       id="path2265-3"
       sodipodi:sides="30"
       sodipodi:cx="102.34252"
       sodipodi:cy="136.46965"
       sodipodi:r1="89.373276"
       sodipodi:r2="44.686638"
       sodipodi:arg1="1.6848447"
       sodipodi:arg2="1.7895645"
       inkscape:flatsided="false"
       inkscape:rounded="0"
       inkscape:randomized="0"
       d="M 92.171727,225.26232 92.6443,180.09121 73.93295,221.20736 83.786798,177.1216 56.935808,213.44895 75.740271,172.3753 41.923157,202.32618 68.856389,166.05976 29.551122,188.32517 63.436012,158.45099 20.360421,172.05782 59.716036,149.88152 14.752731,154.23509 57.859042,140.7259 12.973135,135.63593 57.946189,131.38425 15.09941,117.07321 59.97367,122.26486 21.038627,99.358207 63.852872,113.76629 30.531215,83.265151 69.414257,106.25997 43.162302,69.497387 76.414765,100.07395 58.379848,58.656632 84.54844,95.478599 75.518774,51.21668 l 17.941029,41.458074 0.370224,-45.172063 8.929353,44.282266 9.75394,-44.107972 -0.47258,45.17111 18.71135,-41.11615 -9.85385,44.085759 26.851,-36.327355 -18.80447,41.073651 33.81712,-29.950882 -26.93324,36.266422 39.30527,-22.265406 -33.88489,29.874186 43.07559,-13.60684 -39.35561,22.1763 44.9633,-4.35357 -43.10631,13.50919 44.88591,5.08997 -44.97306,4.25168 42.84678,14.31104 -44.87426,-5.19165 38.93505,22.90665 -42.81425,-14.40808 33.32166,30.50114 -38.88304,-22.99482 26.25195,36.76258 -33.25246,-30.57656 18.03492,41.41732 -26.1686,-36.82197 9.02967,44.26192 -17.94103,-41.45807 -0.37022,45.17206 -8.92936,-44.28227 z"
       inkscape:transform-center-x="1.109853"
       inkscape:transform-center-y="-2.3629782"
       transform="matrix(0.90761567,0.29459908,-0.29459909,0.90761567,51.167224,-3.5794269)" />
  </g>
  <g
     inkscape:label="kex"
     id="layer2"
     inkscape:groupmode="layer">
    <path
       inkscape:transform-center-x="-1.9489268e-06"
       transform="matrix(1.1073695,0,0,1.1261668,-11.946769,-21.3602)"
       inkscape:transform-center-y="-23.792124"
       d="m 178.22181,196.73512 -73.18489,0 -73.184896,-1e-5 36.592447,-63.37997 36.592449,-63.379981 36.59245,63.379981 z"
       inkscape:randomized="0"
       inkscape:rounded="0"
       inkscape:flatsided="false"
       sodipodi:arg2="1.5707963"
       sodipodi:arg1="0.52359878"
       sodipodi:r2="42.253319"
       sodipodi:r1="84.506638"
       sodipodi:cy="154.4818"
       sodipodi:cx="105.03692"
       sodipodi:sides="3"
       id="path2253"
       style="fill:#ffffff;fill-opacity:1;stroke:#000000;stroke-width:2.68641817;stroke-linecap:round;stroke-miterlimit:4;stroke-dasharray:none;stroke-opacity:1;paint-order:markers stroke fill"
       sodipodi:type="star" />
  </g>
  <g
     id="layer1"
     inkscape:groupmode="layer"
     inkscape:label="Слой 1">
    <path
       inkscape:transform-center-y="-19.459811"
       inkscape:transform-center-x="1.0909647e-06"
       d="m 172.18042,192.33233 -67.41076,-1e-5 -67.410759,0 33.705383,-58.37942 33.705376,-58.379437 33.70538,58.379437 z"
       inkscape:randomized="0"
       inkscape:rounded="0"
       inkscape:flatsided="false"
       sodipodi:arg2="1.5707963"
       sodipodi:arg1="0.52359878"
       sodipodi:r2="38.919617"
       sodipodi:r1="77.839241"
       sodipodi:cy="153.41271"
       sodipodi:cx="104.76966"
       sodipodi:sides="3"
       id="path1226"
       style="fill:none;stroke-width:6;stroke-linecap:round;paint-order:markers fill stroke;stroke:#000000;stroke-opacity:1;stroke-miterlimit:4;stroke-dasharray:none"
       sodipodi:type="star" />
    <g
       style="stroke-width:1.00157481;stroke-miterlimit:4;stroke-dasharray:none;stroke:#000000;stroke-opacity:1"
       inkscape:label="Capa 1"
       id="layer1-1"
       transform="matrix(0.26458333,0,0,0.26458333,99.393458,-120.29951)">
      <path
         inkscape:connector-curvature="0"
         sodipodi:nodetypes="cccccccccccccc"
         id="path9518-0-7"
         d="m 14.999994,1025.9915 -11.2422196,9.9235 h 2.2484301 v 12.8177 h 6.7453475 v -7.5644 h 4.651059 l 1.3e-5,7.5644 h 6.591159 v -12.8177 h 2.248444 l -11.242237,-9.9235 v 0 0 z"
         style="font-size:12px;fill:none;stroke:#000000;stroke-width:1.00157481;stroke-miterlimit:4;stroke-dasharray:none;stroke-opacity:1" />
      <path
         style="fill:#1a1a1a;fill-opacity:1;stroke-width:1.00157481;stroke-miterlimit:4;stroke-dasharray:none;stroke:#000000;stroke-opacity:1"
         inkscape:connector-curvature="0"
         d="m 19.798223,922.58556 c -67.475889,0 -125.961753,36.89512 -154.701723,90.78534 28.73997,53.8918 87.225834,90.7857 154.701723,90.7857 67.474694,0 125.960547,-36.8939 154.701717,-90.7857 C 145.76049,959.48068 87.272917,922.58556 19.798223,922.58556 Z m 76.278336,48.14706 c 18.178001,10.88616 33.581661,25.46797 45.151591,42.63828 -11.56993,17.1708 -26.97428,31.7538 -45.152272,42.6411 -22.840834,13.6783 -49.217529,20.909 -76.277655,20.909 -27.0606638,0 -53.437349,-7.2307 -76.278334,-20.9103 -18.177326,-10.886 -33.580995,-25.469 -45.151579,-42.6398 11.56991,-17.17031 26.974253,-31.75336 45.151579,-42.63828 1.183853,-0.70653 2.379801,-1.39664 3.583004,-2.07175 -3.008814,7.75338 -4.655458,16.12102 -4.655458,24.85087 0,40.11126 34.631412,72.62796 77.350788,72.62796 42.719512,0 77.350923,-32.5167 77.350923,-72.62796 0,-8.72985 -1.646773,-17.09749 -4.655591,-24.85087 1.202671,0.6687 2.398485,1.36273 3.583004,2.07175 z m -76.278336,13.70101 c 0,15.04213 -12.9865105,27.23527 -29.0065614,27.23527 -16.0200516,0 -29.0065646,-12.19314 -29.0065646,-27.23527 0,-15.04215 12.986513,-27.2354 29.0065646,-27.2354 16.0200509,0 29.0065614,12.19325 29.0065614,27.2354 z"
         id="path56416-2" />
    </g>
    <path
       transform="scale(0.26458333)"
       id="path2249"
       d="m 375.302,647.42245 c -11.95465,-1.35065 -30.02138,-5.6023 -40.91118,-9.62762 -13.27694,-4.90773 -31.01524,-14.24222 -42.40003,-22.31235 -17.35952,-12.30534 -37.26248,-34.18626 -47.36755,-52.07498 l -2.66137,-4.71134 2.66137,-4.71135 c 10.10817,-17.89421 30.01907,-39.78169 47.36755,-52.06979 53.03192,-37.56304 122.15603,-43.47802 180.56137,-15.45072 28.69902,13.77196 51.30492,33.43486 68.99562,60.01325 3.84746,5.7804 6.99538,11.24835 6.99538,12.151 0,2.57021 -10.93298,18.80878 -19.65025,29.18621 -36.13679,43.0188 -95.72672,66.14529 -153.59091,59.60769 z m 38.91314,-25.53118 c 18.45872,-2.45773 32.74475,-6.80377 48.64665,-14.7991 10.1963,-5.12659 14.32376,-7.75747 24.56714,-15.65927 12.16334,-9.38287 29.7995,-28.75737 29.7995,-32.73674 0,-3.96185 -17.57651,-23.29065 -29.7995,-32.77036 -7.84279,-6.08259 -19.79214,-13.93921 -20.35081,-13.38053 -0.15163,0.15161 0.65165,3.21085 1.78505,6.79829 2.87955,9.11443 3.53845,23.69874 1.50248,33.25614 -9.57955,44.96899 -61.4403,70.11153 -106.19041,51.48201 -26.81461,-11.16295 -44.9367,-37.40986 -44.9367,-65.08353 0,-7.30431 2.11872,-18.79864 4.64632,-25.20682 0.68359,-1.73309 0.17147,-1.62119 -4.20684,0.91927 -14.49282,8.40929 -31.60073,23.49831 -41.39097,36.5065 l -5.61767,7.46413 6.01722,7.90454 c 3.30947,4.3475 10.15126,11.79616 15.20399,16.55258 32.06088,30.18077 76.70816,44.56031 120.32455,38.75289 z m -37.6794,-65.73048 c 6.87743,-2.04238 14.46392,-8.92045 17.42092,-15.79417 2.73782,-6.36424 2.53603,-16.29829 -0.45672,-22.48406 -8.61387,-17.8042 -34.22644,-21.57648 -48.63922,-7.1637 -9.8337,9.8337 -11.07809,22.06861 -3.46545,34.0725 6.87324,10.83798 21.25805,15.49206 35.14047,11.36943 z"
       style="fill:#000000;fill-opacity:1;stroke:#000000;stroke-width:1.01174;stroke-linecap:round;stroke-miterlimit:4;stroke-dasharray:none;stroke-opacity:1;paint-order:markers stroke fill" />
  </g>
</svg>
