<?xml version="1.0" encoding="UTF-8" standalone="no"?>
<svg
   xmlns:dc="http://purl.org/dc/elements/1.1/"
   xmlns:cc="http://creativecommons.org/ns#"
   xmlns:rdf="http://www.w3.org/1999/02/22-rdf-syntax-ns#"
   xmlns:svg="http://www.w3.org/2000/svg"
   xmlns="http://www.w3.org/2000/svg"
   xmlns:sodipodi="http://sodipodi.sourceforge.net/DTD/sodipodi-0.dtd"
   xmlns:inkscape="http://www.inkscape.org/namespaces/inkscape"
   inkscape:version="1.0 (4035a4fb49, 2020-05-01)"
   sodipodi:docname="favorites_logo.svg"
   xml:space="preserve"
   width="47.685734"
   viewBox="0 0 47.685734 41.490921"
   version="1.1"
   id="Layer_1"
   height="41.490921"
   enable-background="new 0 0 91 91"><metadata
     id="metadata52"><rdf:RDF><cc:Work
         rdf:about=""><dc:format>image/svg+xml</dc:format><dc:type
           rdf:resource="http://purl.org/dc/dcmitype/StillImage" /><dc:title></dc:title></cc:Work></rdf:RDF></metadata><defs
     id="defs50" /><sodipodi:namedview
     showguides="false"
     inkscape:current-layer="Layer_1"
     inkscape:window-maximized="1"
     inkscape:window-y="-8"
     inkscape:window-x="-8"
     inkscape:cy="52.950702"
     inkscape:cx="38.790229"
     inkscape:zoom="6.6048436"
     showgrid="false"
     id="namedview48"
     inkscape:window-height="1017"
     inkscape:window-width="1920"
     inkscape:pageshadow="2"
     inkscape:pageopacity="0"
     guidetolerance="10"
     gridtolerance="10"
     objecttolerance="10"
     borderopacity="1"
     bordercolor="#666666"
     pagecolor="#ffffff" />
     <g
     transform="translate(-22.748511,-27.38308)"
     id="g45">
     <path
       id="path43"
       d="m 64.666,30.208 c -2.195,-1.816 -5.014,-2.814 -7.936,-2.814 -3.375,0 -6.642,1.342 -8.962,3.686 -0.417,0.422 -0.808,0.875 -1.175,1.367 -2.841,-3.781 -7.588,-5.721 -12.283,-4.863 -3.896,0.707 -6.959,2.848 -9.098,6.359 -3.018,4.957 -3.265,9.738 -0.73,14.211 1.355,2.393 3.113,4.725 5.375,7.129 4.143,4.404 9.047,8.584 15.434,13.15 0.408,0.293 0.845,0.441 1.301,0.441 0.702,0 1.176,-0.355 1.411,-0.529 5.763,-4.115 10.29,-7.908 14.248,-11.943 2.21,-2.252 4.718,-5.02 6.552,-8.477 0.786,-1.477 1.682,-3.465 1.629,-5.736 -0.118,-4.887 -2.057,-8.918 -5.766,-11.981 z m 1.135,16.123 c -1.633,3.074 -3.937,5.611 -5.977,7.689 -3.66,3.732 -7.845,7.264 -13.238,11.158 -5.869,-4.246 -10.412,-8.145 -14.252,-12.229 -2.073,-2.203 -3.674,-4.32 -4.895,-6.475 -1.933,-3.41 -1.718,-6.832 0.678,-10.764 1.612,-2.648 3.9,-4.258 6.802,-4.785 0.556,-0.102 1.119,-0.152 1.674,-0.152 3.44,0 6.487,1.9 8.208,5.199 l 0.292,0.551 c 0.3,0.563 0.918,0.883 1.528,0.898 0.639,-0.012 1.216,-0.377 1.497,-0.951 0.604,-1.232 1.263,-2.188 2.067,-3.002 1.686,-1.701 4.071,-2.678 6.545,-2.678 2.133,0 4.182,0.723 5.771,2.037 2.956,2.441 4.438,5.531 4.533,9.439 0.033,1.475 -0.604,2.881 -1.233,4.065 z" /></g></svg>
